<svg width="17" height="17" viewBox="0 0 17 17" fill="none" xmlns="http://www.w3.org/2000/svg">
<path fill-rule="evenodd" clip-rule="evenodd" d="M11.0795 0.920497C11.5188 0.481168 12.2312 0.481168 12.6705 0.920497C13.1098 1.35984 13.1098 2.07216 12.6705 2.5115L6.716 8.466L12.6705 14.4205C13.1098 14.8598 13.1098 15.5722 12.6705 16.0115C12.2312 16.4508 11.5188 16.4508 11.0795 16.0115L4.3295 9.2615C4.30345 9.23543 4.27874 9.20817 4.25536 9.1797C4.23199 9.15123 4.21007 9.12166 4.1896 9.091C4.16913 9.0604 4.15021 9.02883 4.13284 8.9963C4.11547 8.96383 4.09974 8.93056 4.08564 8.8965C4.07154 8.8625 4.05914 8.82786 4.04844 8.7926C4.03775 8.75733 4.02881 8.72163 4.02162 8.6855C4.01443 8.64936 4.00903 8.61296 4.00542 8.5763C4.00181 8.53963 4 8.50286 4 8.466C4 8.42913 4.00181 8.39236 4.00542 8.3557C4.00903 8.31903 4.01443 8.28263 4.02162 8.2465C4.02881 8.21037 4.03775 8.17466 4.04844 8.1394C4.05914 8.10413 4.07154 8.0695 4.08564 8.0355C4.09974 8.00143 4.11547 7.96816 4.13284 7.9357C4.15021 7.90316 4.16913 7.8716 4.1896 7.841C4.21007 7.81033 4.23199 7.78076 4.25536 7.7523C4.27874 7.72383 4.30345 7.69657 4.3295 7.6705L11.0795 0.920497Z" fill="#4B5563"/>
</svg>
